# AST/ASF file generated using VICON BodyLanguage
# -----------------------------------------------
:version 1.10
:name VICON
:units
  mass 1.0
  length 0.45
  angle deg
:documentation
   .ast/.asf automatically generated from VICON data using
   VICON BodyBuilder and BodyLanguage model FoxedUp or BRILLIANT.MOD
:root
   order TX TY TZ RX RY RZ
   axis XYZ
   position 0 0 0  
   orientation 0 0 0 
:bonedata
  begin
     id 1 
     name lhipjoint
     direction 0.690799 -0.707083 0.151096 
     length 2.54797 
     axis 0 0 0  XYZ
  end
  begin
     id 2 
     name lfemur
     direction 0.34202 -0.939693 0  
     length 7.21646  
     axis 0 0 20  XYZ
    dof rx ry rz
    limits (-160.0 20.0)
           (-70.0 70.0)
           (-60.0 70.0)
  end
  begin
     id 3 
     name ltibia
     direction 0.34202 -0.939693 0   
     length 8.16759   
     axis 0 0 20   XYZ
    dof rx
    limits (-10.0 170.0)
  end
  begin
     id 4 
     name lfoot
     direction 0.0487203 -0.133858 0.989802   
     length 1.93375   
     axis -90 7.62852e-016 20   XYZ
    dof rx rz
    limits (-45.0 90.0)
           (-70.0 20.0)
  end
  begin
     id 5 
     name ltoes
     direction 1.53453e-011 -4.21783e-011 1   
     length 0.979747   
     axis -90 7.62852e-016 20   XYZ
    dof rx
    limits (-90.0 20.0)
  end
  begin
     id 6 
     name rhipjoint
     direction -0.694693 -0.703425 0.150315   
     length 2.56122  
     axis 0 0 0  XYZ 
  end
  begin
     id 7 
     name rfemur
     direction -0.34202 -0.939693 0   
     length 7.36786   
     axis 0 0 -20   XYZ
    dof rx ry rz
    limits (-160.0 20.0)
           (-70.0 70.0)
           (-70.0 60.0)
  end
  begin
     id 8 
     name rtibia
     direction -0.34202 -0.939693 0   
     length 8.07288   
     axis 0 0 -20   XYZ
    dof rx
    limits (-10.0 170.0)
 end
 begin
     id 9 
     name rfoot
     direction -0.0428397 -0.117701 0.992125   
     length 1.88295  
     axis -90 -7.62852e-016 -20   XYZ
    dof rx rz
    limits (-45.0 90.0)
           (-20.0 70.0)
  end
  begin
     id 10 
     name rtoes
     direction -1.53456e-011 -4.2187e-011 1   
     length 0.955578   
     axis -90 -7.62852e-016 -20   XYZ
    dof rx
    limits (-90.0 20.0)
  end
  begin
     id 11 
     name lowerback
     direction 0.0288145 0.999398 -0.0193241   
     length 1.92149   
     axis 0 0 0   XYZ
    dof rx ry rz
    limits (-20.0 45.0)
           (-30.0 30.0)
           (-30.0 30.0)
  end
  begin
     id 12 
     name upperback
     direction 0.0233784 0.998099 0.0570278   
     length 1.90435   
     axis 0 0 0   XYZ
    dof rx ry rz
    limits (-20.0 45.0)
           (-30.0 30.0)
           (-30.0 30.0)
  end
  begin
     id 13 
     name thorax
     direction 0.0096694 0.997833 0.0650817   
     length 1.9111   
     axis 0 0 0   XYZ
    dof rx ry rz
    limits (-20.0 45.0)
           (-30.0 30.0)
           (-30.0 30.0)
  end
  begin
     id 14 
     name lowerneck
     direction 0.00516803 0.999916 0.0118722   
     length 1.74664   
     axis 0 0 0   XYZ
    dof rx ry rz
    limits (-20.0 45.0)
           (-30.0 30.0)
           (-30.0 30.0)
  end
  begin
     id 15 
     name upperneck
     direction -0.0510851 0.996117 -0.071696   
     length 1.68498   
     axis 0 0 0   XYZ
    dof rx ry rz
    limits (-20.0 45.0)
           (-30.0 30.0)
           (-30.0 30.0)
  end
  begin
     id 16
     name head
     direction -0.019188 0.999436 -0.0275702  
     length 1.83483  
     axis 0 0 0   XYZ
    dof rx ry rz
    limits (-20.0 45.0)
           (-30.0 30.0)
           (-30.0 30.0)
  end
  begin
     id 17 
     name lclavicle
     direction 0.967006 0.248456 -0.0562957  
     length 3.39395  
     axis 0 0 0   XYZ
    dof ry rz
    limits (-20.0 10.0)
           (0.0 20.0)
  end
  begin
     id 18 
     name lhumerus
     direction 1 -4.48962e-011 -5.62711e-019   
     length 5.24318   
     axis 180 -30 -90   XYZ
    dof rx ry rz
    limits (-60.0 90.0)
           (-90.0 90.0)
           (-90.0 90.0)
  end
  begin
     id 19
     name lradius
     direction 1 -4.48966e-011 7.90625e-027   
     length 2.98999   
     axis 180 -30 -90   XYZ
    dof rx
    limits (-10.0 170.0)
  end
  begin
     id 20
     name lwrist
     direction 1 -4.48959e-011 1.61068e-026   
     length 1.49499   
     axis -9.31229e-015 90 90   XYZ
    dof ry
    limits (-180.0 0.0)
 end
  begin
     id 21 
     name lhand
     direction 1 -4.49017e-011 3.22136e-026   
     length 0.726745   
     axis -2.0555e-014 90 90   XYZ
    dof rx rz
    limits (-90.0 90.0)
           (-45.0 45.0)
  end
  begin
     id 22 
     name lfingers
     direction 1 -4.4898e-011 6.44272e-026   
     length 0.58592   
     axis -4.11101e-014 90 90   XYZ
    dof rx
    limits (0.0 90.0)
  end
  begin
     id 23
     name lthumb
     direction 0.707107 -6.34922e-011 0.707107   
     length 0.841268   
     axis -90 45 2.85299e-015   XYZ
    dof rx rz
    limits (-45.0 45.0)
           (-45.0 45.0)
  end
  begin
     id 24 
     name rclavicle
     direction -0.972232 0.230238 0.0419005   
     length 3.40416  
     axis 0 0 0   XYZ 
    dof ry rz
    limits (-10.0 20.0)
           (-20.0 0.0)
  end
  begin
     id 25 
     name rhumerus
     direction -1 -4.48976e-011 2.48487e-027  
     length 5.37045   
     axis 180 30 90   XYZ
    dof rx ry rz
    limits (-90.0 60.0)
           (-90.0 90.0)
           (-90.0 90.0)
  end
  begin
     id 26 
     name rradius
     direction -1 -4.48942e-011 7.87951e-027   
     length 2.92792   
     axis 180 30 90   XYZ
    dof rx
    limits (-10.0 170.0)
  end
  begin
     id 27 
     name rwrist
     direction -1 -4.48969e-011 1.61068e-026   
     length 1.46396   
     axis -9.31229e-015 -90 -90   XYZ
    dof ry
    limits (-180.0 0.0)
  end
  begin
     id 28
     name rhand
     direction -1 -4.49043e-011 3.22136e-026   
     length 0.784497   
     axis -2.0555e-014 -90 -90   XYZ
    dof rx rz
    limits (-90.0 90.0)
           (-45.0 45.0)
  end
  begin
     id 29
     name rfingers
     direction -1 -4.48823e-011 6.44272e-026   
     length 0.632482   
     axis -4.11101e-014 -90 -90   XYZ
    dof rx
    limits (0.0 90.0)
  end
  begin
     id 30
     name rthumb
     direction -0.707107 -6.34923e-011 0.707107   
     length 0.908121   
     axis -90 -45 -2.85299e-015   XYZ
    dof rx rz
    limits (-45.0 45.0)
           (-45.0 45.0)
  end
:hierarchy
  begin
    root lhipjoint rhipjoint lowerback
    lhipjoint lfemur
    lfemur ltibia
    ltibia lfoot
    lfoot ltoes
    rhipjoint rfemur
    rfemur rtibia
    rtibia rfoot
    rfoot rtoes
    lowerback upperback
    upperback thorax
    thorax lowerneck lclavicle rclavicle
    lowerneck upperneck
    upperneck head
    lclavicle lhumerus
    lhumerus lradius
    lradius lwrist
    lwrist lhand lthumb
    lhand lfingers
    rclavicle rhumerus
    rhumerus rradius
    rradius rwrist
    rwrist rhand rthumb
    rhand rfingers
  end

#!OML:ASF E:\Style6\Style6.ASF
:FULLY-SPECIFIED
:DEGREES
396
root 0.408538 15.5547 0.54253 13.595 -1.51861 -3.73411
lowerback 6.85441 -0.809596 3.22092
upperback -5.92864 -0.370711 3.86111
thorax -10.1938 -0.245517 2.38956
lowerneck -11.8258 1.23136 3.16011
upperneck 22.727 2.38176 -5.70013
head 9.18232 0.770828 -2.2197
rclavicle -1.73937e-015 -3.18055e-015
rhumerus -43.4957 25.8667 -49.1885
rradius 51.4455
rwrist -24.444
rhand 17.6506 6.15638
rfingers 7.12502
rthumb 42.3405 -18.3186
lclavicle -1.73937e-015 -3.18055e-015
lhumerus -54.1456 -48.5642 72.8327
lradius 49.284
lwrist 48.9421
lhand 21.0305 19.8496
lfingers 7.12502
lthumb 45.4939 43.152
rfemur -48.9855 -12.1069 24.4228
rtibia 68.9177
rfoot -25.0006 12.6974
rtoes -2.27198
lfemur -48.0235 10.4704 -15.3486
ltibia 71.7741
lfoot -30.3647 2.11094
ltoes -29.7413
397
root 0.410572 15.5607 0.543574 13.6061 -1.58984 -3.60051
lowerback 6.82259 -0.787338 3.1261
upperback -5.92593 -0.35716 3.82275
thorax -10.1705 -0.233809 2.39829
lowerneck -11.912 1.29559 3.19791
upperneck 22.7568 2.46129 -5.69039
head 9.21339 0.810789 -2.21405
rclavicle -1.48095e-014 3.10104e-014
rhumerus -43.5107 25.7796 -49.2214
rradius 51.4523
rwrist -24.3881
rhand 17.6254 6.04949
rfingers 7.12502
rthumb 42.3169 -18.4335
lclavicle -1.48095e-014 3.10104e-014
lhumerus -54.0424 -48.5061 72.6869
lradius 49.2497
lwrist 48.7692
lhand 21.119 19.7526
lfingers 7.12502
lthumb 45.576 43.0216
rfemur -48.9911 -12.0732 24.2538
rtibia 68.8735
rfoot -24.8441 12.6219
rtoes -2.9143
lfemur -47.9615 10.4598 -15.5158
ltibia 71.6765
lfoot -30.3441 2.05806
ltoes -29.5644
398
root 0.410991 15.5655 0.544448 13.6341 -1.6185 -3.57648
lowerback 6.79958 -0.770262 3.12236
upperback -5.96625 -0.332657 3.83654
thorax -10.2021 -0.221159 2.41237
lowerneck -11.84 1.37389 3.30705
upperneck 22.7673 2.56947 -5.77347
head 9.2114 0.862992 -2.24917
rclavicle 4.72114e-015 1.66979e-014
rhumerus -43.5798 25.7462 -49.2546
rradius 51.4573
rwrist -24.2581
rhand 17.6157 6.0144
rfingers 7.12502
rthumb 42.3078 -18.4717
lclavicle 4.72114e-015 1.66979e-014
lhumerus -53.9655 -48.3766 72.594
lradius 49.1604
lwrist 48.4914
lhand 21.1931 19.7343
lfingers 7.12502
lthumb 45.6449 42.9753
rfemur -48.9952 -12.0182 24.2184
rtibia 68.8216
rfoot -24.7677 12.541
rtoes -3.28697
lfemur -47.9465 10.4758 -15.5616
ltibia 71.6005
lfoot -30.2953 2.13544
ltoes -29.6743
399
root 0.411684 15.5714 0.544968 13.6502 -1.61318 -3.58472
lowerback 6.82827 -0.766929 3.18175
upperback -6.02547 -0.315216 3.85171
thorax -10.2866 -0.21647 2.39573
lowerneck -11.664 1.46091 3.5309
upperneck 22.7326 2.67938 -5.91538
head 9.17652 0.9217 -2.32351
rclavicle 1.6847e-014 -2.70347e-014
rhumerus -43.6975 25.8058 -49.3394
rradius 51.5003
rwrist -24.212
rhand 17.5358 5.92631
rfingers 7.12502
rthumb 42.233 -18.5852
lclavicle 1.6847e-014 -2.70347e-014
lhumerus -53.9725 -48.2952 72.5855
lradius 49.0768
lwrist 48.1238
lhand 21.0942 19.5871
lfingers 7.12502
lthumb 45.553 42.8655
rfemur -48.9683 -11.9913 24.2164
rtibia 68.7658
rfoot -24.9034 12.3433
rtoes -4.18554
lfemur -47.9344 10.4928 -15.5638
ltibia 71.5325
lfoot -30.2629 2.12812
ltoes -29.7419
400
root 0.413289 15.5753 0.544477 13.7102 -1.59675 -3.61927
lowerback 6.7929 -0.766236 3.2784
upperback -6.06758 -0.301451 3.8696
thorax -10.3139 -0.21622 2.35941
lowerneck -11.5552 1.5192 3.64671
upperneck 22.6723 2.75677 -6.00169
head 9.14198 0.961078 -2.36352
rclavicle 1.91827e-014 -3.57812e-014
rhumerus -43.7421 25.7692 -49.3669
rradius 51.5252
rwrist -24.0896
rhand 17.5334 5.89307
rfingers 7.12502
rthumb 42.2307 -18.6192
lclavicle 1.91827e-014 -3.57812e-014
lhumerus -53.9137 -48.2418 72.5199
lradius 49.0358
lwrist 47.731
lhand 21.0302 19.4962
lfingers 7.12502
lthumb 45.4936 42.7986
rfemur -49.0046 -11.9617 24.2576
rtibia 68.7183
rfoot -24.8827 12.2959
rtoes -4.17504
lfemur -47.9926 10.4855 -15.5375
ltibia 71.4889
lfoot -30.2484 1.93175
ltoes -29.1774
401
root 0.413976 15.5768 0.544063 13.7545 -1.56959 -3.62269
lowerback 6.76445 -0.75833 3.34134
upperback -6.09985 -0.283119 3.87418
thorax -10.3339 -0.211861 2.32672
lowerneck -11.5438 1.56096 3.65729
upperneck 22.6603 2.81402 -6.00513
head 9.13913 0.988845 -2.35982
rclavicle -9.93923e-015 1.90833e-014
rhumerus -43.7833 25.6767 -49.3821
rradius 51.4781
rwrist -23.883
rhand 17.6035 6.02918
rfingers 7.12502
rthumb 42.2963 -18.4608
lclavicle -9.93923e-015 1.90833e-014
lhumerus -53.8189 -48.1988 72.4213
lradius 49.0388
lwrist 47.2812
lhand 20.9371 19.5894
lfingers 7.12502
lthumb 45.407 42.9268
rfemur -49.034 -11.9668 24.2756
rtibia 68.6806
rfoot -24.9152 12.3441
rtoes -4.05644
lfemur -48.0294 10.4381 -15.5413
ltibia 71.4476
lfoot -30.218 2.04541
ltoes -29.3852
402
root 0.414426 15.5802 0.545182 13.7779 -1.56586 -3.5114
lowerback 6.78487 -0.743211 3.2767
upperback -6.15148 -0.267986 3.85505
thorax -10.4034 -0.200777 2.3424
lowerneck -11.6455 1.61733 3.71177
upperneck 22.7958 2.89936 -6.06087
head 9.21173 1.02475 -2.38047
rclavicle 1.49089e-015 3.18055e-015
rhumerus -43.8362 25.5871 -49.3755
rradius 51.4323
rwrist -23.7234
rhand 17.7297 6.15356
rfingers 7.12502
rthumb 42.4145 -18.2961
lclavicle 1.49089e-015 3.18055e-015
lhumerus -53.8065 -48.1957 72.4155
lradius 49.024
lwrist 46.7895
lhand 20.7848 19.5731
lfingers 7.12502
lthumb 45.2655 42.9673
rfemur -49.0523 -11.9867 24.1582
rtibia 68.6562
rfoot -25.0398 12.1497
rtoes -5.05739
lfemur -48.0158 10.3861 -15.6717
ltibia 71.3841
lfoot -30.208 2.17398
ltoes -29.7388
